HIERARCHY
ROOT pelvis
{
  OFFSET 0 100 0
  CHANNELS 6 Xposition Yposition Zposition Zrotation Xrotation Yrotation
  JOINT pelvis_right_femur
  {
    OFFSET -10.78128 -3.44521 -0.5502486
    CHANNELS 3 Zrotation Xrotation Yrotation
    JOINT right_femur_tibia
    {
      OFFSET -0.8047443 -44.0398 -0.1307829
      CHANNELS 3 Zrotation Xrotation Yrotation
      JOINT right_tibia_foot
      {
        OFFSET 3.006224 -47.83518 -5
        CHANNELS 3 Zrotation Xrotation Yrotation
        End Site
        {
          OFFSET 0 -5 15
        }
      }
    }
  }
  JOINT pelvis_left_femur
  {
    OFFSET 10.78128 -3.44521 -0.5502486
    CHANNELS 3 Zrotation Xrotation Yrotation
    JOINT left_femur_tibia
    {
      OFFSET 0.8047443 -44.0398 -0.1307829
      CHANNELS 3 Zrotation Xrotation Yrotation
      JOINT left_tibia_foot
      {
        OFFSET -4.370144 -48.10324 -4.275266
        CHANNELS 3 Zrotation Xrotation Yrotation
        End Site
        {
          OFFSET 0 -5 15
        }
      }
    }
  }
  JOINT pelvis_spine1
  {
    OFFSET 0 6.468898 -3.129235
    CHANNELS 3 Zrotation Xrotation Yrotation
    JOINT spine1
    {
      OFFSET 0 23.15396 4.99043
      CHANNELS 3 Zrotation Xrotation Yrotation
      JOINT spine2
      {
        OFFSET 0 20.79997 -5.064912
        CHANNELS 3 Zrotation Xrotation Yrotation
        JOINT neck
        {
          OFFSET 0 14.38658 9.616178
          CHANNELS 3 Zrotation Xrotation Yrotation
          End Site
          {
            OFFSET 0 20 0
          }
        }
      }
      JOINT right_manubrium
      {
        OFFSET -5.722621 16.35077 3.967754
        CHANNELS 3 Zrotation Xrotation Yrotation
        JOINT right_clavicle
        {
          OFFSET -13.16364 1.694482 -4.693211
          CHANNELS 3 Zrotation Xrotation Yrotation
          JOINT right_humerus
          {
            OFFSET -28.5034 -0.3100689 -2.792744
            CHANNELS 3 Zrotation Xrotation Yrotation
            JOINT right_radius
            {
              OFFSET -25.15693 0.02248979 -1.271978
              CHANNELS 3 Zrotation Xrotation Yrotation
              End Site
              {
                OFFSET -15 0 0
              }
            }
          }
        }
      }
      JOINT left_manubrium
      {
        OFFSET 5.722621 16.35077 3.967754
        CHANNELS 3 Zrotation Xrotation Yrotation
        JOINT left_clavicle
        {
          OFFSET 13.16364 1.694482 -4.693211
          CHANNELS 3 Zrotation Xrotation Yrotation
          JOINT left_humerus
          {
            OFFSET 29.39168 -1.063119 -2.237045
            CHANNELS 3 Zrotation Xrotation Yrotation
            JOINT left_radius
            {
              OFFSET 24.59957 -0.9528479 0.9047498
              CHANNELS 3 Zrotation Xrotation Yrotation
              End Site
              {
                OFFSET 15 -0 -0
              }
            }
          }
        }
      }
    }
  }
}
MOTION
Frames: 13
Frame Time: 0.0416666666667
-1028.874 96.43869 2451.858 -8.371077 -4.301446 -65.31118 0.183178 -8.198101 -3.780112 -0 42.9671 -0 -16.338 9.200429 3.045526 -4.640505 8.067716 -15.88006 -0 10.29993 -0 -1.83087 -15.01907 17.98805 -0.3598218 -2.393686 7.419157 -0.1853191 13.84941 -4.2916 -0.3595231 21.25186 5.644212 5.365957 -15.18958 2.834686 2.128886 -25.73419 12.89156 83.3826 22.86052 -8.633409 -0 0 25.01877 -23.6888 12.57552 11.96288 4.059622 -23.6862 -8.830707 -95.99067 8.436075 33.34155 0 0 -0.6430635 10.8331 13.47216 -1.48269
-1032.525 96.00717 2453.973 -7.343881 -4.111082 -64.85484 0.2599667 -11.81846 -4.373074 -0 34.59576 -0 -14.46262 5.892364 1.904459 -4.871393 9.646611 -15.40956 -0 8.279417 -0 -1.74705 -17.01976 17.34742 -0.3368782 -2.387365 7.415837 -0.177495 13.93221 -4.339429 -0.349992 21.22858 5.6158 5.393522 -15.20429 2.786948 2.128308 -25.70497 12.90738 83.47695 22.77212 -8.804961 -0 0 24.94817 -23.66253 12.58496 11.84824 4.06624 -23.78755 -8.907121 -95.93903 8.381379 33.23253 0 0 -0.7289512 10.86432 13.45185 -1.545043
-1036.202 95.09149 2456.053 -6.149274 -3.909705 -64.48911 0.2541238 -14.88491 -4.951689 -0 26.87679 -0 -12.90997 3.317337 1.117999 -5.252534 10.80494 -14.85709 -0 6.984191 -0 -0.9448112 -18.50262 16.91556 -0.3175485 -2.389062 7.425114 -0.1602726 14.00637 -4.39025 -0.3519496 21.19705 5.588627 5.413089 -15.20659 2.733299 2.131867 -25.70373 12.92796 83.55158 22.68662 -8.95407 -0 0 24.92069 -23.61014 12.58862 11.74344 4.058995 -23.88364 -8.979944 -95.90024 8.318789 33.18668 0 0 -0.8229082 10.87573 13.4175 -1.570813
-1039.971 93.83131 2458.147 -4.961618 -3.664097 -64.18759 0.2924988 -17.68308 -5.451774 -0 20.31655 -0 -11.69664 1.679733 0.6678571 -5.666797 11.69748 -14.20024 -0 6.52171 -0 0.455767 -19.42793 16.67792 -0.3026127 -2.398232 7.446271 -0.1348162 14.06833 -4.441289 -0.3650424 21.15918 5.564309 5.424123 -15.19679 2.676747 2.13945 -25.72967 12.95216 83.60349 22.60859 -9.074117 -0 0 24.93606 -23.53461 12.58625 11.65308 4.038566 -23.96972 -9.04556 -95.87649 8.251763 33.20544 0 0 -0.9184855 10.86725 13.3711 -1.559346
-1043.9 92.35749 2460.296 -3.900891 -3.371874 -63.92626 0.4475289 -20.33942 -5.881778 -0 14.95732 -0 -10.80561 0.9955932 0.5144305 -6.035935 12.4613 -13.43234 -0 6.956554 -0 2.23065 -19.82688 16.55382 -0.2926697 -2.413828 7.47744 -0.102997 14.11507 -4.489538 -0.387975 21.1176 5.544239 5.426488 -15.17597 2.620825 2.150621 -25.77971 12.97848 83.63097 22.54235 -9.159893 -0 0 24.99077 -23.44116 12.57827 11.5815 4.006758 -24.04126 -9.100506 -95.86862 8.184551 33.28478 0 0 -1.009517 10.84044 13.31598 -1.513034
-1048.067 90.79832 2462.544 -3.061998 -3.04286 -63.68673 0.7701448 -22.84702 -6.272199 -0 10.77196 -0 -10.23429 1.236544 0.6368065 -6.3038 13.18642 -12.55331 -0 8.412404 -0 4.137644 -19.70868 16.42505 -0.2881182 -2.434627 7.516219 -0.06690419 14.14444 -4.532326 -0.4190008 21.075 5.529457 5.420376 -15.14566 2.568867 2.164752 -25.8497 13.00535 83.63356 22.4914 -9.208092 -0 0 25.07951 -23.33576 12.56545 11.53213 3.965959 -24.09466 -9.141971 -95.87623 8.121248 33.4172 0 0 -1.091263 10.7979 13.2559 -1.436189
-1052.553 89.29254 2464.932 -2.54152 -2.688992 -63.46091 1.316555 -25.08272 -6.638845 -0 7.819321 -0 -10.0009 2.354674 1.026342 -6.415489 13.90309 -11.56191 -0 11.10461 -0 5.912958 -19.03531 16.14221 -0.2891915 -2.459562 7.560317 -0.02837643 14.15512 -4.567681 -0.4564231 21.03363 5.520586 5.406109 -15.10738 2.523478 2.181191 -25.93558 13.03142 83.61158 22.45818 -9.217085 -0 0 25.19695 -23.22381 12.54866 11.50732 3.918495 -24.12752 -9.168023 -95.89819 8.065112 33.59437 0 0 -1.160921 10.74239 13.19419 -1.333543
-1057.432 88.00139 2467.499 -2.433514 -2.317995 -63.26001 2.158266 -26.80556 -6.953486 -0 6.234286 -0 -10.13016 4.223357 1.650971 -6.310864 14.55532 -10.44869 -0 15.33008 -0 7.264312 -17.73042 15.53443 -0.2960311 -2.487951 7.607989 0.01131471 14.14651 -4.594429 -0.4989592 20.99498 5.517844 5.383909 -15.06221 2.486306 2.199411 -26.03432 13.05577 83.56552 22.44399 -9.186261 -0 0 25.33914 -23.10921 12.52867 11.5085 3.866121 -24.13852 -9.177559 -95.93315 8.018263 33.80937 0 0 -1.217622 10.67611 13.13328 -1.208971
-1062.744 87.11364 2470.266 -2.782785 -1.924145 -63.12815 3.370776 -27.65556 -7.102897 -0 6.118887 -0 -10.62448 6.525347 2.387057 -5.938066 14.94736 -9.195469 -0 21.41139 -0 7.921178 -15.70736 14.46528 -0.3087833 -2.519614 7.658245 0.05160633 14.11833 -4.612126 -0.5459294 20.95975 5.521114 5.353692 -15.01058 2.458064 2.219106 -26.14442 13.07796 83.49549 22.44925 -9.115227 -0 0 25.50429 -22.99403 12.5061 11.53667 3.809736 -24.12704 -9.170077 -95.97993 7.981728 34.05803 0 0 -1.262195 10.60028 13.07453 -1.064684
-1068.455 86.83126 2473.211 -3.493917 -1.479552 -63.15179 4.977239 -27.18693 -6.846086 -0 7.358911 -0 -11.42833 8.63844 2.931188 -5.292091 14.6775 -7.801703 -0 29.54514 -0 7.770834 -12.93423 12.97077 -0.3276851 -2.554888 7.710824 0.09262914 14.07038 -4.620877 -0.5972702 20.92792 5.530002 5.314932 -14.95214 2.438714 2.240221 -26.26598 13.09797 83.40089 22.47376 -9.003172 -0 0 25.69306 -22.87852 12.48143 11.59285 3.749342 -24.09275 -9.145396 -96.03761 7.955687 34.3392 0 0 -1.296903 10.51502 13.01839 -0.9010142
-1074.416 87.31276 2476.236 -4.25442 -0.9594423 -63.4413 6.809934 -24.99233 -5.861023 -0 9.428675 -0 -12.42031 9.666659 2.804631 -4.467638 13.14237 -6.365629 -0 39.47467 -0 7.008671 -9.580373 11.43187 -0.3530884 -2.59451 7.765939 0.1350245 14.00238 -4.621154 -0.6533342 20.89902 5.543859 5.266682 -14.88596 2.427716 2.262882 -26.40025 13.11607 83.28042 22.51689 -8.848689 -0 0 25.90792 -22.7617 12.4551 11.67826 3.684274 -24.03538 -9.103477 -96.1054 7.939813 34.6538 0 0 -1.325197 10.41964 12.96476 -0.7169276
-1080.376 88.56 2479.168 -4.654552 -0.4586881 -64.06487 8.351332 -20.96962 -4.039811 -0 11.3716 -0 -13.45208 8.85447 1.686357 -3.669176 9.789951 -5.183288 -0 50.01473 -0 6.043771 -6.212759 10.52919 -0.3853406 -2.639271 7.823726 0.1795167 13.91424 -4.613591 -0.714381 20.87248 5.56173 5.207882 -14.81101 2.424338 2.287188 -26.54841 13.13258 83.13277 22.57758 -8.650478 -0 0 26.15148 -22.64258 12.4278 11.79408 3.613803 -23.95477 -9.044468 -96.18209 7.93367 35.00215 0 0 -1.351261 10.31345 12.91364 -0.5115819
-1086.081 90.31366 2481.843 -4.612724 -0.3044893 -64.96719 8.908262 -15.58622 -1.902593 -0 12.20965 -0 -14.27417 6.285154 -0.0193592 -3.085991 4.646587 -4.633524 -0 58.89018 -0 5.023394 -3.727439 10.70721 -0.4244467 -2.689319 7.883367 0.2261109 13.80686 -4.598729 -0.779679 20.84827 5.582341 5.138153 -14.72739 2.428092 2.312808 -26.70946 13.14744 82.9584 22.6542 -8.409268 -0 0 26.42297 -22.52223 12.40069 11.94035 3.538267 -23.85145 -8.969042 -96.26528 7.937202 35.37922 0 0 -1.3788 10.19729 12.86609 -0.2871916
